<svg width="461.02255859375px" height="150.81497802734376px" xmlns="http://www.w3.org/2000/svg" viewBox="19.48872070312501 -0.40748901367187784 461.02255859375 150.81497802734376" style="background: rgba(0, 0, 0, 0);" preserveAspectRatio="xMidYMid"><defs><filter id="editing-hole" x="-100%" y="-100%" width="300%" height="300%"><feFlood flood-color="#000000" result="black"></feFlood><feMorphology operator="dilate" radius="2" in="SourceGraphic" result="erode"></feMorphology><feGaussianBlur in="erode" stdDeviation="4" result="blur"></feGaussianBlur><feOffset in="blur" dx="2" dy="2" result="offset"></feOffset><feComposite operator="atop" in="offset" in2="black" result="merge"></feComposite><feComposite operator="in" in="merge" in2="SourceGraphic" result="inner-shadow"></feComposite></filter></defs><g filter="url(#editing-hole)"><g transform="translate(87.53499627113342, 107.31999969482422)"><path d="M12.35 0L2.43 0L2.43-54.98L19.20-54.98L23.81-21.44L28.42-54.98L45.31-54.98L45.31 0L35.26 0L35.26-39.62L28.93 0L19.07 0L12.35-39.62L12.35 0ZM58.50 0.51L58.50 0.51Q53.06 0.51 51.04-3.10L51.04-3.10L51.04-3.10Q49.02-6.72 49.02-13.44L49.02-13.44L49.02-13.44Q49.02-18.94 50.46-21.89L50.46-21.89L50.46-21.89Q51.90-24.83 54.46-26.21L54.46-26.21L54.46-26.21Q57.02-27.58 62.27-29.25L62.27-29.25L65.34-30.27L65.34-30.40L65.34-35.07L65.34-35.07Q65.34-36.93 64.61-37.92L64.61-37.92L64.61-37.92Q63.87-38.91 62.85-38.91L62.85-38.91L62.85-38.91Q61.95-38.91 61.28-38.08L61.28-38.08L61.28-38.08Q60.61-37.25 60.61-35.84L60.61-35.84L60.61-33.02L49.73-33.02L49.73-34.56L49.73-34.56Q49.73-41.47 52.96-44.42L52.96-44.42L52.96-44.42Q56.19-47.36 63.49-47.36L63.49-47.36L63.49-47.36Q69.31-47.36 72.96-44.32L72.96-44.32L72.96-44.32Q76.61-41.28 76.61-35.71L76.61-35.71L76.61 0L65.47 0L65.47-5.57L65.47-5.57Q64.64-2.69 62.82-1.09L62.82-1.09L62.82-1.09Q60.99 0.51 58.50 0.51L58.50 0.51ZM62.91-8.19L62.91-8.19Q64.19-8.19 64.74-9.25L64.74-9.25L64.74-9.25Q65.28-10.30 65.28-11.84L65.28-11.84L65.28-24.90L65.28-24.90Q62.78-23.94 61.60-22.46L61.60-22.46L61.60-22.46Q60.42-20.99 60.42-18.37L60.42-18.37L60.42-12.35L60.42-12.35Q60.42-8.19 62.91-8.19L62.91-8.19ZM80.90 0L80.90-46.85L92.10-46.85L92.10-41.66L92.10-41.66Q92.93-44.42 95.01-45.92L95.01-45.92L95.01-45.92Q97.09-47.42 100.16-47.42L100.16-47.42L100.16-38.08L100.16-38.08Q97.79-38.08 94.94-37.41L94.94-37.41L94.94-37.41Q92.10-36.74 92.10-35.84L92.10-35.84L92.10 0L80.90 0ZM113.98 0L102.91 0L102.91-55.30L113.98-55.30L113.98-30.72L119.36-46.85L130.94-46.85L123.90-26.50L132.86 0L120.96 0L113.98-22.08L113.98 0ZM147.46 0.51L147.46 0.51Q140.22 0.51 137.09-3.46L137.09-3.46L137.09-3.46Q133.95-7.42 133.95-15.30L133.95-15.30L133.95-34.11L133.95-34.11Q133.95-40.58 137.66-43.97L137.66-43.97L137.66-43.97Q141.38-47.36 148.03-47.36L148.03-47.36L148.03-47.36Q161.54-47.36 161.54-34.11L161.54-34.11L161.54-30.72L161.54-30.72Q161.54-25.60 161.41-22.40L161.41-22.40L145.15-22.40L145.15-13.31L145.15-13.31Q145.15-10.88 145.66-9.50L145.66-9.50L145.66-9.50Q146.18-8.13 147.84-8.13L147.84-8.13L147.84-8.13Q149.12-8.13 149.66-8.90L149.66-8.90L149.66-8.90Q150.21-9.66 150.30-10.66L150.30-10.66L150.30-10.66Q150.40-11.65 150.40-13.57L150.40-13.57L150.40-18.11L161.54-18.11L161.54-15.42L161.54-15.42Q161.54-7.23 158.37-3.36L158.37-3.36L158.37-3.36Q155.20 0.51 147.46 0.51L147.46 0.51ZM145.09-27.97L150.40-27.97L150.40-33.98L150.40-33.98Q150.40-39.04 147.90-39.04L147.90-39.04L147.90-39.04Q145.09-39.04 145.09-33.98L145.09-33.98L145.09-27.97ZM175.23 0.51L175.23 0.51Q170.82 0.51 169.15-1.34L169.15-1.34L169.15-1.34Q167.49-3.20 167.49-7.30L167.49-7.30L167.49-36.54L164.35-36.54L164.35-45.06L167.49-45.06L167.49-54.98L178.37-54.98L178.37-45.06L181.57-45.06L181.57-36.54L178.37-36.54L178.37-10.24L178.37-10.24Q178.37-9.02 178.56-8.45L178.56-8.45L178.56-8.45Q178.75-7.87 179.58-7.87L179.58-7.87L179.58-7.87Q180.22-7.87 180.80-7.94L180.80-7.94L180.80-7.94Q181.38-8 181.57-8L181.57-8L181.57-0.32L181.57-0.32Q180.61-0.06 178.78 0.22L178.78 0.22L178.78 0.22Q176.96 0.51 175.23 0.51L175.23 0.51ZM185.09 9.34L185.09-46.85L196.48-46.85L196.48-44.35L196.48-44.35Q198.91-47.36 203.20-47.36L203.20-47.36L203.20-47.36Q208.64-47.36 210.78-43.71L210.78-43.71L210.78-43.71Q212.93-40.06 212.93-33.60L212.93-33.60L212.93-16.26L212.93-16.26Q212.93-10.75 212.29-7.26L212.29-7.26L212.29-7.26Q211.65-3.78 209.47-1.63L209.47-1.63L209.47-1.63Q207.30 0.51 202.88 0.51L202.88 0.51L202.88 0.51Q198.66 0.51 196.48-1.86L196.48-1.86L196.48 9.34L185.09 9.34ZM199.17-8.19L199.17-8.19Q200.70-8.19 201.15-9.60L201.15-9.60L201.15-9.60Q201.60-11.01 201.60-13.70L201.60-13.70L201.60-33.60L201.60-33.60Q201.60-36.03 201.15-37.31L201.15-37.31L201.15-37.31Q200.70-38.59 199.10-38.59L199.10-38.59L199.10-38.59Q196.48-38.59 196.48-33.73L196.48-33.73L196.48-13.18L196.48-13.18Q196.48-10.82 197.02-9.50L197.02-9.50L197.02-9.50Q197.57-8.19 199.17-8.19L199.17-8.19ZM228.48 0L217.09 0L217.09-55.30L228.48-55.30L228.48 0ZM241.47 0.51L241.47 0.51Q236.03 0.51 234.02-3.10L234.02-3.10L234.02-3.10Q232.00-6.72 232.00-13.44L232.00-13.44L232.00-13.44Q232.00-18.94 233.44-21.89L233.44-21.89L233.44-21.89Q234.88-24.83 237.44-26.21L237.44-26.21L237.44-26.21Q240.00-27.58 245.25-29.25L245.25-29.25L248.32-30.27L248.32-30.40L248.32-35.07L248.32-35.07Q248.32-36.93 247.58-37.92L247.58-37.92L247.58-37.92Q246.85-38.91 245.82-38.91L245.82-38.91L245.82-38.91Q244.93-38.91 244.26-38.08L244.26-38.08L244.26-38.08Q243.58-37.25 243.58-35.84L243.58-35.84L243.58-33.02L232.70-33.02L232.70-34.56L232.70-34.56Q232.70-41.47 235.94-44.42L235.94-44.42L235.94-44.42Q239.17-47.36 246.46-47.36L246.46-47.36L246.46-47.36Q252.29-47.36 255.94-44.32L255.94-44.32L255.94-44.32Q259.58-41.28 259.58-35.71L259.58-35.71L259.58 0L248.45 0L248.45-5.57L248.45-5.57Q247.62-2.69 245.79-1.09L245.79-1.09L245.79-1.09Q243.97 0.51 241.47 0.51L241.47 0.51ZM245.89-8.19L245.89-8.19Q247.17-8.19 247.71-9.25L247.71-9.25L247.71-9.25Q248.26-10.30 248.26-11.84L248.26-11.84L248.26-24.90L248.26-24.90Q245.76-23.94 244.58-22.46L244.58-22.46L244.58-22.46Q243.39-20.99 243.39-18.37L243.39-18.37L243.39-12.35L243.39-12.35Q243.39-8.19 245.89-8.19L245.89-8.19ZM277.95 0.51L277.95 0.51Q270.27 0.51 266.88-3.39L266.88-3.39L266.88-3.39Q263.49-7.30 263.49-15.36L263.49-15.36L263.49-29.82L263.49-29.82Q263.49-35.90 264.80-39.71L264.80-39.71L264.80-39.71Q266.11-43.52 269.22-45.44L269.22-45.44L269.22-45.44Q272.32-47.36 277.82-47.36L277.82-47.36L277.82-47.36Q283.84-47.36 287.62-44.22L287.62-44.22L287.62-44.22Q291.39-41.09 291.39-35.46L291.39-35.46L291.39-28.29L280-28.29L280-34.88L280-34.88Q280-36.74 279.49-37.73L279.49-37.73L279.49-37.73Q278.98-38.72 277.50-38.72L277.50-38.72L277.50-38.72Q274.75-38.72 274.75-34.82L274.75-34.82L274.75-12.10L274.75-12.10Q274.75-10.50 275.42-9.38L275.42-9.38L275.42-9.38Q276.10-8.26 277.44-8.26L277.44-8.26L277.44-8.26Q278.78-8.26 279.46-9.34L279.46-9.34L279.46-9.34Q280.13-10.43 280.06-12.16L280.06-12.16L280-20.03L291.39-20.03L291.39-11.84L291.39-11.84Q291.39-6.08 287.65-2.78L287.65-2.78L287.65-2.78Q283.90 0.51 277.95 0.51L277.95 0.51ZM308.42 0.51L308.42 0.51Q301.18 0.51 298.05-3.46L298.05-3.46L298.05-3.46Q294.91-7.42 294.91-15.30L294.91-15.30L294.91-34.11L294.91-34.11Q294.91-40.58 298.62-43.97L298.62-43.97L298.62-43.97Q302.34-47.36 308.99-47.36L308.99-47.36L308.99-47.36Q322.50-47.36 322.50-34.11L322.50-34.11L322.50-30.72L322.50-30.72Q322.50-25.60 322.37-22.40L322.37-22.40L306.11-22.40L306.11-13.31L306.11-13.31Q306.11-10.88 306.62-9.50L306.62-9.50L306.62-9.50Q307.14-8.13 308.80-8.13L308.80-8.13L308.80-8.13Q310.08-8.13 310.62-8.90L310.62-8.90L310.62-8.90Q311.17-9.66 311.26-10.66L311.26-10.66L311.26-10.66Q311.36-11.65 311.36-13.57L311.36-13.57L311.36-18.11L322.50-18.11L322.50-15.42L322.50-15.42Q322.50-7.23 319.33-3.36L319.33-3.36L319.33-3.36Q316.16 0.51 308.42 0.51L308.42 0.51ZM306.05-27.97L311.36-27.97L311.36-33.98L311.36-33.98Q311.36-39.04 308.86-39.04L308.86-39.04L308.86-39.04Q306.05-39.04 306.05-33.98L306.05-33.98L306.05-27.97Z" fill="#ccc"></path></g></g><style>text {
  font-size: 64px;
  font-family: Arial Black;
  dominant-baseline: central;
  text-anchor: middle;
}</style></svg>